<?xml version="1.0" standalone="no"?>
<svg
  width="600"
  height="600"
  viewBox="0 0 600 600"
  xmlns="http://www.w3.org/2000/svg"
>
  <g transform="translate(300,300)">
    <path d="M126,-193.7C164.1,-171.6,196.2,-137.9,222,-96.8C247.9,-55.8,267.5,-7.2,260.7,37.2C253.8,81.6,220.6,122,185.9,159.9C151.2,197.8,115.1,233.2,73.6,241C32.1,248.8,-14.7,229,-63.7,215.3C-112.7,201.7,-164.1,194.1,-201.2,166.1C-238.3,138,-261.2,89.4,-265.9,39.8C-270.6,-9.9,-257.2,-60.6,-234.4,-105.6C-211.5,-150.5,-179.3,-189.7,-138.7,-210.6C-98,-231.5,-49,-234.3,-2.5,-230.3C44,-226.4,87.9,-215.8,126,-193.7Z" fill="#3c8874" />
  </g>
</svg>
    