<?xml version="1.0" standalone="no"?>
<svg
  width="600"
  height="600"
  viewBox="0 0 600 600"
  xmlns="http://www.w3.org/2000/svg"
>
  <g transform="translate(300,300)">
    <path d="M75.1,-117.9C103,-98.9,135.2,-87.7,165.9,-63.2C196.7,-38.7,226,-1,213,24.6C200,50.2,144.6,63.8,111.9,91.4C79.3,119,69.4,160.7,45.9,177C22.5,193.2,-14.4,183.9,-55.3,177C-96.2,170.1,-141,165.6,-164.7,141.1C-188.3,116.6,-190.6,72.2,-203,25.5C-215.4,-21.1,-237.8,-70,-221.8,-99.8C-205.9,-129.7,-151.6,-140.6,-108.2,-152.4C-64.9,-164.3,-32.4,-177.1,-4.4,-170.3C23.6,-163.4,47.2,-136.8,75.1,-117.9Z" fill="#3c8874" />
  </g>
</svg>
    