<?xml version="1.0" standalone="no"?>
<svg
  width="600"
  height="600"
  viewBox="0 0 600 600"
  xmlns="http://www.w3.org/2000/svg"
>
  <g transform="translate(300,300)">
    <path d="M152.6,-160.4C201.5,-140.8,247.5,-96.3,248,-50.1C248.5,-4,203.5,43.8,171.3,98.4C139.2,153.1,119.9,214.7,77.9,242.2C35.9,269.7,-28.7,263.1,-70.7,231.7C-112.8,200.2,-132.2,143.8,-141.7,96.7C-151.3,49.5,-151,11.5,-145.3,-26.5C-139.7,-64.4,-128.6,-102.3,-103.5,-126.1C-78.4,-149.8,-39.2,-159.4,6.3,-166.9C51.9,-174.5,103.7,-179.9,152.6,-160.4Z" fill="#3c8874" />
  </g>
</svg>
    